<svg width="20" height="20" viewBox="0 0 20 20" fill="none" xmlns="http://www.w3.org/2000/svg">
<g id="distance_FILL1_wght400_GRAD0_opsz48 (2) 1">
<path id="Vector" d="M10 18.3346C8.52778 18.3346 7.32639 18.1194 6.39583 17.6888C5.46528 17.2582 5 16.7096 5 16.043C5 15.668 5.17014 15.3138 5.51042 14.9805C5.85069 14.6471 6.31944 14.3763 6.91667 14.168L7.29167 15.3763C7.06944 15.4457 6.86458 15.543 6.67708 15.668C6.48958 15.793 6.34028 15.918 6.22917 16.043C6.46528 16.3207 6.95486 16.5638 7.69792 16.7721C8.44097 16.9805 9.20833 17.0846 10 17.0846C10.7917 17.0846 11.5625 16.9805 12.3125 16.7721C13.0625 16.5638 13.5556 16.3207 13.7917 16.043C13.6806 15.9319 13.5347 15.8138 13.3542 15.6888C13.1736 15.5638 12.9653 15.4596 12.7292 15.3763L13.0833 14.168C13.6806 14.3763 14.1493 14.6471 14.4896 14.9805C14.8299 15.3138 15 15.668 15 16.043C15 16.7096 14.5347 17.2582 13.6042 17.6888C12.6736 18.1194 11.4722 18.3346 10 18.3346ZM10 16.1263C9.83333 16.1263 9.6875 16.0777 9.5625 15.9805C9.4375 15.8832 9.34722 15.7582 9.29167 15.6055C8.95833 14.5916 8.54167 13.7513 8.04167 13.0846C7.54167 12.418 7.05556 11.7791 6.58333 11.168C6.11111 10.5569 5.70833 9.92144 5.375 9.26172C5.04167 8.602 4.875 7.77908 4.875 6.79297C4.875 5.36241 5.37153 4.15061 6.36458 3.15755C7.35764 2.1645 8.56944 1.66797 10 1.66797C11.4306 1.66797 12.6424 2.1645 13.6354 3.15755C14.6285 4.15061 15.125 5.36241 15.125 6.79297C15.125 7.77908 14.9583 8.602 14.625 9.26172C14.2917 9.92144 13.8889 10.5569 13.4167 11.168C12.9444 11.7791 12.4583 12.418 11.9583 13.0846C11.4583 13.7513 11.0417 14.5916 10.7083 15.6055C10.6528 15.7582 10.5625 15.8832 10.4375 15.9805C10.3125 16.0777 10.1667 16.1263 10 16.1263ZM10 8.04297C10.3472 8.04297 10.6424 7.92144 10.8854 7.67839C11.1285 7.43533 11.25 7.14019 11.25 6.79297C11.25 6.44575 11.1285 6.15061 10.8854 5.90755C10.6424 5.6645 10.3472 5.54297 10 5.54297C9.65278 5.54297 9.35764 5.6645 9.11458 5.90755C8.87153 6.15061 8.75 6.44575 8.75 6.79297C8.75 7.14019 8.87153 7.43533 9.11458 7.67839C9.35764 7.92144 9.65278 8.04297 10 8.04297Z" fill="#8C8C8C"/>
</g>
</svg>
